<svg width="492" height="509" viewBox="0 0 492 509" fill="none" xmlns="http://www.w3.org/2000/svg">
<path fill-rule="evenodd" clip-rule="evenodd" d="M491.99 498.977L428.062 252.262L485.465 5.97656H384.605L366.04 91.332C354.264 71.4344 340.249 53.7179 323.371 39.2718C294.243 14.341 257.559 0 211.836 0C85.4268 0 0 108.18 0 252.477C0 325.009 19.5274 388.434 55.5117 434.276C91.7463 480.438 144.063 507.885 206.874 508.538C253.015 509.027 291.222 494.903 322.027 470.168C341.131 454.828 357.072 435.67 370.314 413.973L390.908 498.977H491.99ZM294.948 152.778C314.08 184.89 324.845 224.077 330.963 252.429C324.426 281.436 311.992 321.603 291.504 354.459C270.38 388.335 242.937 411.188 207.055 411.188C177.913 411.188 152.908 396.205 134.513 368.777C115.908 341.035 104.523 300.93 104.523 253.672C104.523 205.553 116.715 165.924 136.152 138.818C155.375 112.01 181.59 97.3515 211.836 97.3515C248.966 97.3515 275.366 119.91 294.948 152.778Z" fill="white"/>
</svg>
